<?xml version="1.0" standalone="no"?>
<!DOCTYPE svg PUBLIC "-//W3C//DTD SVG 1.1//EN" "http://www.w3.org/Graphics/SVG/1.1/DTD/svg11.dtd" >
<!--
2013-9-30: Created.
-->
<svg>
<metadata>
Created by iconfont
</metadata>
<defs>

<font id="iconfont" horiz-adv-x="1024" >
  <font-face
    font-family="iconfont"
    font-weight="500"
    font-stretch="normal"
    units-per-em="1024"
    ascent="896"
    descent="-128"
  />
    <missing-glyph />
    
    <glyph glyph-name="x" unicode="x" horiz-adv-x="1001"
d="M281 543q-27 -1 -53 -1h-83q-18 0 -36.5 -6t-32.5 -18.5t-23 -32t-9 -45.5v-76h912v41q0 16 -0.5 30t-0.5 18q0 13 -5 29t-17 29.5t-31.5 22.5t-49.5 9h-133v-97h-438v97zM955 310v-52q0 -23 0.5 -52t0.5 -58t-10.5 -47.5t-26 -30t-33 -16t-31.5 -4.5q-14 -1 -29.5 -0.5
t-29.5 0.5h-32l-45 128h-439l-44 -128h-29h-34q-20 0 -45 1q-25 0 -41 9.5t-25.5 23t-13.5 29.5t-4 30v167h911zM163 247q-12 0 -21 -8.5t-9 -21.5t9 -21.5t21 -8.5q13 0 22 8.5t9 21.5t-9 21.5t-22 8.5zM316 123q-8 -26 -14 -48q-5 -19 -10.5 -37t-7.5 -25t-3 -15t1 -14.5
t9.5 -10.5t21.5 -4h37h67h81h80h64h36q23 0 34 12t2 38q-5 13 -9.5 30.5t-9.5 34.5q-5 19 -11 39h-368zM336 498v228q0 11 2.5 23t10 21.5t20.5 15.5t34 6h188q31 0 51.5 -14.5t20.5 -52.5v-227h-327z" />
    

    
    <glyph glyph-name="emotion" unicode="&#58953;" d="M512.01124999-67.24874997999996c-120.52124999 0-233.8425 46.935-319.03874999 132.09749999C107.74249999 150.12374998999996 60.83 263.43375001000004 60.8525 384c0 120.555 46.94625001 233.8875 132.1875 319.11749998C278.24749998 788.325 391.5575 835.26000001 512.09 835.26000001c120.57749999 0 233.87625001-46.935 319.12875001-132.13125003 175.9275-175.995 175.905-462.27374998 0-638.18999997C745.94375001-20.279999999999973 632.58875001-67.24874997999996 512.01124999-67.24874997999996L512.01124999-67.24874997999996zM512.09 776.44499999c-104.83875002 0-203.36625001-40.80374999-277.48125002-114.90749999C160.4825 587.4449999999999 119.65624999 488.86125001 119.65624999 384 119.645 279.12750000000005 160.4375 180.55499999999995 234.54124999 106.44000000999995c74.10375001-74.07 172.665-114.91875001 277.47000002-114.91875003 104.8725 0 203.4675 40.87125002 277.61624999 115.00875002 153 152.9775 153 401.97374999 0 555.0075C715.49 735.64125001 616.94000001 776.44499999 512.09 776.44499999L512.09 776.44499999zM351.74374999 260.84624999000005c0 0 52.86375002-84.51 160.25625001-84.51s177.8175 84.51 177.8175 84.51 39.915 0.135 39.90375001-42.255c0 0-69.22124999-98.595-217.72125001-98.595-148.51124999 0-196.84125003 98.595-196.84125003 98.595S313.69624999 260.84624999000005 351.74374999 260.84624999000005zM380.88124999 529.1024999900001c-30.43125002 0-55.26000001-24.75-55.25999997-55.27125 0-30.47625001 24.82874999-55.2375 55.25999999-55.2375 30.56624999 0 55.26000001 24.76124999 55.26 55.2375C436.14125001 504.3525 411.4475 529.1024999900001 380.88124999 529.1024999900001L380.88124999 529.1024999900001zM664.02125001 529.1024999900001c-30.47625001 0-55.22624997-24.75-55.22625002-55.27125 0-30.47625001 24.75-55.2375 55.22625002-55.2375 30.5325 0 55.27124999 24.76124999 55.27124998 55.2375C719.29250002 504.3525 694.55375001 529.1024999900001 664.02125001 529.1024999900001L664.02125001 529.1024999900001z"  horiz-adv-x="1024" />

    
    <glyph glyph-name="voice" unicode="&#59119;" d="M511.93173332 177.35679999c-112.9472 0-204.8 91.8528-204.79999998 204.80000002L307.13173332 654.98453333c0 112.9472 91.8528 204.8 204.80000002 204.8s204.8-91.8528 204.79999998-204.8l2e-8-272.82773332C716.73173334 269.24373332000005 624.87893333 177.35679999 511.93173332 177.35679999zM511.93173332 791.51786667c-75.29813334 0-136.53333333-61.23520001-136.53333331-136.53333334l0-272.82773334c0-75.29813334 61.23520001-136.53333333 136.53333333-136.53333333 75.29813334 0 136.53333333 61.23520001 136.53333334 136.53333333L648.46506668 654.98453333C648.46506668 730.28266667 587.22986667 791.51786667 511.93173332 791.51786667zM887.46666667 418.37226667L887.46666667 554.66666667c0 18.8416-15.2576 34.13333333-34.13333334 34.13333333s-34.13333333-15.29173333-34.13333333-34.13333333l0-136.2944c0-170.83733333-137.79626667-309.82826667-307.2-309.82826666-169.36960001 0-307.2 138.99093333-307.2 309.82826666L204.8 554.66666667c0 18.8416-15.29173333 34.13333333-34.13333333 34.13333333s-34.13333333-15.29173333-34.13333334-34.13333333l0-136.2944c0-196.9152 150.25493334-358.912 341.33333334-376.35413334L477.86666667-25.600000000000023 273.06666667-25.600000000000023c-18.8416 0-34.13333333-15.2576-34.13333334-34.13333333s15.29173333-34.13333333 34.13333334-34.13333334l477.86666666 0c18.87573333 0 34.13333333 15.2576 34.13333334 34.13333334s-15.2576 34.13333333-34.13333334 34.13333333l-204.8 0 0 67.584C737.21173334 59.46026667000001 887.46666667 221.45706666 887.46666667 418.37226667z"  horiz-adv-x="1024" />

    
    <glyph glyph-name="send-up" unicode="&#58990;" d="M955.392 788.352L777.6 116.79999999999995c-10.048-37.888-18.368-68.8-18.56-68.736-0.192 0.064-0.32 0.768-0.384 0.96-0.064 0.192-29.056 12.48-64.448 27.264l-116.608 48.832c-35.392 14.784-93.504 38.592-129.152 52.736l-12.288 4.928c-35.648 14.144-43.328 49.216-17.216 77.888l361.024 397.12c26.112 28.736 22.912 32.32-7.168 8L316.16 295.67999999999995C285.952 271.48800000000006 232.256 263.616 196.736 278.01599999999996L91.584 320.76800000000003C56.064 335.29600000000005 54.656 362.048 88.512 380.288l823.552 443.84C945.92 842.304 965.376 826.24 955.392 788.352zM331.648 154.75199999999995l84.224-32.128c36.928-14.016 49.28-51.008 27.456-81.984 0 0-77.248-110.08-75.072-104 2.24 6.208-75.904 181.312-75.904 181.376C277.056 152.32000000000005 294.72 168.832 331.648 154.75199999999995z"  horiz-adv-x="1024" />

    
    <glyph glyph-name="copy" unicode="&#60061;" d="M735.3125 848.4375C725.375 858.375 711.875 864 697.8125 864L343.625 864c-35.34375001 0-64.6875-26.0625-69.9375-59.90625001L199.8125 804.09375001c-59.53125001 0-107.8125-48.28125001-107.8125-107.81250002l0-684.375c0-59.53125001 48.28125001-107.8125 107.8125-107.8125l566.625 0c59.53125001 0 107.8125 48.28125001 107.8125 107.8125l0 75.28125001c32.8125 6.09375001 57.65625001 34.96875001 57.65625001 69.46874999L931.90625001 629.8125c0 14.0625-5.625 27.5625-15.56250002 37.59375001L735.3125 848.4375zM844.90625001 654l-149.06250002 0L695.84375001 803.0625 844.90625001 654zM814.34375001 11.8125c0-26.34375001-21.46875001-47.8125-47.81250002-47.8125L199.8125-36c-26.34375001 0-47.8125 21.46875001-47.8125 47.8125l0 684.375c0 26.34375001 21.46875001 47.8125 47.8125 47.8125l73.03125001 0-2e-8-587.4375c0-39 31.6875-70.78125001 70.78125001-70.78125001l470.71875001 2e-8L814.34375001 11.8125zM872 156.65624999c0-5.90625001-4.78125001-10.78125001-10.78125001-10.78124999L343.625 145.875c-5.90625001 0-10.78125001 4.78125001-10.78125001 10.78125001L332.84374999 793.21875001c0 5.90625001 4.78125001 10.78125001 10.78125001 10.78124999l288.28125001 0-2e-8-180c0-16.59375001 13.40625001-30 30-30l34.03125001 0 0 0L872 594 872 156.65624999zM721.53125001 444.9375L482.9375 444.9375c-16.59375001 0-30 13.40625001-30 30l0 0c0 16.59375001 13.40625001 30 30 30l238.59375001 0c16.59375001 0 30-13.40625001 29.99999998-30l0 0C751.53125001 458.34375001 738.03125002 444.9375 721.53125001 444.9375zM721.53125001 324L482.9375 324c-16.59375001 0-30 13.40625001-30 30l0 0c0 16.59375001 13.40625001 30 30 30l238.59375001 0c16.59375001 0 30-13.40625001 29.99999998-30l0 0C751.53125001 337.49999999 738.03125002 324 721.53125001 324zM602.46875001 203.0625l-120.00000002 0c-16.59375001 0-30 13.40625001-30 30l0 0c0 16.59375001 13.40625001 30 30 30l120 0c16.59375001 0 30-13.40625001 30-30l0 0C632.46875001 216.5625 619.0625 203.0625 602.46875001 203.0625z"  horiz-adv-x="1024" />

    
    <glyph glyph-name="more" unicode="&#58900;" d="M142.09783344 506.62913489c-55.00430719 0-99.60350906-44.62894125-99.60350907-99.67641937 0-55.06186781 44.59920187-99.69081 99.60350907-99.69081 55.00910344 0 99.60926531 44.62894125 99.60926531 99.69081C241.70613969 462.0011527 197.10693781 506.62913489 142.09783344 506.62913489zM880.86223156 506.62913489c-55.00718531 0-99.60638719-44.62894125-99.60638718-99.67641937 0-55.06186781 44.59920187-99.69081 99.60638718-99.69081 55.00622531 0 99.60542719 44.62894125 99.60542719 99.69081C980.46765875 462.0011527 935.86845687 506.62913489 880.86223156 506.62913489zM511.4800325 506.62913489c-55.00526625 0-99.60638719-44.62894125-99.60638719-99.67641937 0-55.06186781 44.60112-99.69081 99.60638719-99.69081 55.00814438 0 99.60638719 44.62894125 99.60638719 99.69081C611.08737875 462.0011527 566.48817688 506.62913489 511.4800325 506.62913489z"  horiz-adv-x="1024" />

    
    <glyph glyph-name="male" unicode="&#58932;" d="M365.10469001 299.10022612c0-62.41242438-18.34432254-113.06515873-41.00057285-113.06515872-22.59415497 0-40.96579873 50.65273435-40.96579871 113.06515872 0 62.44719851 18.37288653 113.06515873 40.96579871 113.06515874C346.76036747 412.16538366 365.10469001 361.54742343 365.10469001 299.10022612zM749.48971522 299.10022612c0-62.41242438-18.34059669-113.06515873-40.96579872-113.06515872-22.62892787 0-40.96952457 50.65273435-40.96952456 113.06515872 0 62.44719851 18.34059669 113.06515873 40.96952456 113.06515874C731.14911852 412.16538366 749.48971522 361.54742343 749.48971522 299.10022612zM514.91810489 847.4229631c-257.57187126 0-466.35636539-208.75220431-466.3563654-466.35636538 0-257.53958142 208.78449414-466.35263955 466.3563654-466.35263954 257.53958142 0 466.35263955 208.81305814 466.35263954 466.35263954C981.27074443 638.67075879 772.45768631 847.4229631 514.91810489 847.4229631zM514.91810489-31.59061663c-227.93233537 0-412.66218174 184.75717003-412.66218174 412.65845588 0 4.0685125 0.46447669 8.0687195 0.58742587 12.13723201l100.09211699 167.93543446 148.6348373-89.19679947-50.929681 110.42733107L538.37911543 429.48636884l-25.44683266 127.43411121 267.49973785-118.89967347-46.70841256 97.6418194 192.922759-136.18961036c0.24714113-6.14375242 0.93143647-12.22665101 0.93143648-18.40517637C927.57656078 153.16779493 742.81814921-31.59061663 514.91810489-31.59061663z"  horiz-adv-x="1024" />

    
    <glyph glyph-name="female" unicode="&#58934;" d="M707.20291423 414.33128292c-22.76926471 0-41.23156903-50.94210006-41.23156905-113.78795284 0-62.81107867 18.46106279-113.78795284 41.23156905-113.78795285 22.76926471 0 41.23156903 50.9768742 41.23156904 113.78795285C748.43448327 363.38918285 729.97342049 414.33128292 707.20291423 414.33128292zM320.32909146 414.33128292c-22.76926471 0-41.23156903-50.94210006-41.23156906-113.78795284 0-62.81107867 18.46106279-113.78795284 41.23156903-113.78795285 22.80155456 0 41.26013302 50.9768742 41.26013305 113.78795285C361.58922448 363.38918285 343.13064599 414.33128292 320.32909146 414.33128292zM512.36015551 852.37075028c-259.21740861 0-469.33323503-210.08601969-469.33323504-469.33571812 0-259.18511877 210.11582644-469.33323503 469.33323504-469.33323502 259.18511877 0 469.33323503 210.14687349 469.33323503 469.33323502C981.69339054 642.28348906 771.54651583 852.37075028 512.36015551 852.37075028zM512.36015551-32.261251389999984c-147.46122832 0-276.61414977 77.0533573-350.32799884 192.87183999-19.3018387 88.61309945-37.2934574 298.22967626 173.16389532 439.44407252 53.72398918-15.21221389 159.61212214-58.31658943 210.89947436-170.44782862 0 0 1.06183733 78.36854469-50.10008141 152.05010273 143.36663613-46.04150489 350.20380691-153.76767143 381.21938519-397.08981353C806.80944223 55.38191284000004 669.84611991-32.261251389999984 512.36015551-32.261251389999984z"  horiz-adv-x="1024" />

    
    <glyph glyph-name="camera-bar" unicode="&#59369;" d="M859.96359802 692.3186399900001L750.43753645 692.3186399900001c-16.3012678 59.37222563-71.76798094 103.32866345-138.30079218 103.32866346L414.46372646 795.64730343c-66.55871344 0-121.97362218-43.9564378-138.30079219-103.32866342l-109.50015845 0c-73.64255062 0-133.32752437-59.68497375-133.32752435-133.32752438l-1e-8-453.31185469c0-73.64255062 59.68497375-133.32752437 133.32752436-133.32752437l693.29986315 0c73.61568844 0 133.32752437 59.68497375 133.32752435 133.32752437l0 453.31185469C993.29016239 632.63366625 933.57928647 692.3186399900001 859.96359802 692.3186399900001zM939.95896083 105.68022094000003c0-44.11185187-35.88351094-79.99632281-79.99632281-79.99632282L166.66277584 25.68389811999998c-44.11281187 0-79.99632281 35.88351094-79.99632282 79.99632282l0 453.31185468c0 44.11185187 35.88351094 79.99632281 79.9963228 79.99632283l109.50015845 0 40.64955937 0 10.78021125 39.19134842c10.36385344 37.75807969 46.09194937 64.137315 86.87102157 64.137315l197.67301781 0c40.78003126 0 76.50716812-26.37923531 86.89692375-64.137315l10.78021125-39.19134842 40.6236572 0 109.52606155 0c44.11185187 0 79.99632281-35.88351094 79.99632281-79.99632283L939.95992083 105.68022094000003zM513.31318739 568.1317987499999c-130.46194687 0-236.60342251-106.11461439-236.6034225-236.57656125 0-130.46290595 106.14147562-236.57847938 236.6034225-236.57847939 130.43700375 0 236.55065906 106.11461439 236.55065908 236.57847939C749.86384553 462.01718437 643.75019115 568.1317987499999 513.31318739 568.1317987499999zM513.31318739 148.30795875c-101.21905313 0-183.27222188 82.02726563-183.27222188 183.24727875 0 101.21905313 82.05316782 183.24631875 183.27222188 183.24631875 101.19315094 0 183.22041655-82.02726563 183.22041658-183.24631875C696.53360397 230.33522437 614.50633834 148.30795875 513.31318739 148.30795875zM845.90145239 591.02091939l-54.42390093-3e-8c-14.73848719 0-26.66512125-11.92663406-26.66512125-26.66512124 0-14.73944625 11.92663406-26.66512125 26.66512125-26.66512123l54.42390093 0c14.73848719 0 26.66608031 11.92663406 26.66608032 26.66512123C872.56657364 579.09524531 860.63993958 591.02091939 845.90145239 591.02091939z"  horiz-adv-x="1040" />

    
    <glyph glyph-name="picture" unicode="&#58948;" d="M910.40000001 780L113.59999999 780C68 780 32 744.00000001 32 700.8l0-647.99999999c0-45.6 36-81.60000001 81.60000001-81.60000001l799.2 0c45.6 0 81.60000001 36 81.59999999 81.60000001l0 647.99999999C992 744.00000001 956 780 910.40000001 780zM944 52.799999970000044c0-16.8-14.40000001-33.60000001-33.60000001-33.59999997L113.59999999 19.200000000000045c-16.8 0-33.60000001 14.40000001-33.59999999 33.60000001L80 240l244.80000001 206.40000001 256.79999999-247.20000001c9.6-9.6 21.59999999-9.6 31.20000001 0l122.39999999 100.8 201.6-206.4c2.39999999-2.39999999 4.80000001-2.39999999 7.2-4.8L944 52.799999970000044zM944 153.59999999000001l-189.6 194.40000001c-9.6 9.6-24.00000003 9.6-33.6 2.40000001l-122.4-100.80000001L341.6 494.39999998c-9.6 9.6-21.59999999 9.6-31.2 0l-230.4-191.99999997L80 700.8c0 16.8 14.40000001 33.60000001 33.60000001 33.60000002l799.2 0c16.8 0 33.60000001-14.40000001 33.59999999-33.60000002L946.4 153.59999999000001z"  horiz-adv-x="1027" />

    
    <glyph glyph-name="chat" unicode="&#59208;" d="M512 756.82702222c251.14042469 0 455.67747161-160.52274569 455.67747161-358.06928592 0-92.9478479-45.56774717-179.1640968-128.15928889-243.11428741-84.92171061-65.76254419-200.39452445-101.75070815-324.92910619-101.75070814-74.8243121 0-132.0429037 7.76722963-180.45863505 24.07841184-1.55344592 0.51781531-3.3657995 1.29453827-5.17815309 1.81235358-0.77672297 0.25890765-1.55344592 0.51781531-2.07126122 0.51781531-12.16865975 3.62470717-25.11404247 5.43706075-38.0594252 5.43706074-14.49882864 0-28.73874963-2.33016889-42.20194766-6.73159902l0 0-0.77672295-0.25890765c-1.55344592-0.51781531-23.04278124-8.54395259-28.47984197-11.13302913l0 0-102.52743112-44.53211655c35.7292563 113.66046025 35.7292563 115.99062914 35.7292563 123.24004346 0 18.38244347-5.69596839 36.50597925-16.31118222 52.29934617-1.29453827 1.81235358-2.58907653 3.62470717-4.14252248 5.43706075-1.81235358 2.33016889-3.3657995 4.40143013-4.66033777 5.95487605-45.04993185 56.7007763-68.86943605 121.94550518-68.86943605 189.00258765C56.32252839 596.3042765299999 260.85957531 756.82702222 512 756.82702222M512 798.2522469099999C237.29897876 798.2522469099999 14.8973037 619.34705778 14.8973037 398.7577363c0-79.48464987 28.99765728-153.53223902 78.70792691-215.67007605 2.33016889-2.33016889 7.50832197-9.83849086 9.32067556-12.68647507 0 0-2.58907653 4.14252247-2.8479842 4.91924543 0 0 0 0 0 0l0 0c0 0 0 0 0 0 5.95487605-8.54395259 9.32067555-18.38244347 9.32067556-28.99765728 0-3.62470717-46.34447013-150.1664395-46.34447012-150.1664395l0 0c-3.3657995-11.3919368 5.43706075-23.04278124 19.67698173-25.89076544 2.07126124-0.51781531 4.14252247-0.51781531 6.21378369-0.5178153 3.3657995 0 6.47269136 0.51781531 9.57958322 1.29453827l4.14252247 1.55344592 131.00727309 56.95968396c2.33016889 1.03563061 23.30168889 9.0617679 25.89076542 10.09739851 0 0 1.55344592 0.51781531 1.55344594 0.51781531 0 0-0.25890765 0-1.55344594-0.51781531 8.80286025 3.10689185 18.64135111 4.66033778 28.99765728 4.66033778 9.32067555 0 18.38244347-1.29453827 26.66748841-3.88361481 0.25890765 0 0.51781531 0 0.51781531-0.25890766 1.29453827-0.51781531 2.58907653-0.77672297 3.8836148-1.29453826 59.80766815-20.45370469 125.31130469-26.66748839 194.43964841-26.66748841 274.44211358 0 494.51361975 165.95980642 494.51361974 386.54912791C1009.1026963 619.34705778 786.44211358 798.2522469099999 512 798.2522469099999L512 798.2522469099999z"  horiz-adv-x="1024" />

    
    <glyph glyph-name="translate-lang" unicode="&#58986;" d="M81.6 467.09333333h849.70666667c24.53333333 0 44.48 19.94666667 44.48 44.48 0 13.54666667-6.18666667 26.45333333-16.85333334 34.88-2.66666667 3.41333333-5.86666667 6.50666667-9.49333333 8.96L632.10666667 778.13333333c-20.05333333 14.18666667-47.78666667 9.38666667-61.97333334-10.66666667-14.18666667-20.05333333-9.38666667-47.78666667 10.66666667-61.97333333 0.10666667 0 0.10666667-0.10666667 0.21333333-0.10666667l212.69333334-149.33333333H81.6c-24.53333333 0-44.48-19.94666667-44.48-44.48s19.94666667-44.48 44.48-44.48z m849.81333333-177.6H81.6c-24.53333333 0-44.48-19.94666667-44.48-44.48 0-13.54666667 6.18666667-26.45333333 16.85333333-34.88 2.66666667-3.30666667 5.76-6.4 9.49333334-8.96l317.44-222.82666667c20.05333333-14.08 47.78666667-9.28 61.97333333 10.77333333v0.10666667c14.08 20.16 9.28 47.89333333-10.88 61.97333333L219.30666667 200.53333333h712.10666666c24.53333333 0 44.48 19.94666667 44.48 44.48 0 24.53333333-19.94666667 44.48-44.48 44.48z"  horiz-adv-x="1024" />

    
    <glyph glyph-name="add" unicode="&#58916;" d="M836.26666667 59.73333333000005m-34.13333334 0a34.13333333 34.13333333 0 1 1 68.26666667 0 34.13333333 34.13333333 0 1 1-68.26666667 0ZM512-102.39999999999998a486.4 486.4 0 1 0 422.144 244.65066667 34.13333333 34.13333333 0 0 0-59.22133333 34.13333333 418.13333333 418.13333333 0 1 1-155.136-155.136 34.13333333 34.13333333 0 0 0 34.13333333-59.22133333A486.4 486.4 0 0 0 512-102.39999999999998zM716.8 349.86666667H307.2a34.13333333 34.13333333 0 0 0 0 68.26666666h409.6a34.13333333 34.13333333 0 0 0 0-68.26666666zM512 145.06666667000002a34.13333333 34.13333333 0 0 0-34.13333333 34.13333333V588.8a34.13333333 34.13333333 0 0 0 68.26666666 0v-409.6a34.13333333 34.13333333 0 0 0-34.13333333-34.13333333z"  horiz-adv-x="1024" />

    
    <glyph glyph-name="mine" unicode="&#58893;" d="M512 292.86400000000003c-157.44 0-285.568 128.06400001-285.568 285.50400001C226.432 735.8720000000001 354.49599999 864 512 864s285.63200001-128.128 285.63200001-285.568C797.568 420.992 669.44 292.86400000000003 512 292.86400000000003z m0 522.17600001c-130.49600001 0-236.672-106.17600001-236.672-236.67200002 0-130.49600001 106.17600001-236.60800001 236.672-236.60799999 130.49600001 0 236.672 106.112 236.672 236.60800001C748.672 708.92800001 642.49600001 815.04000001 512 815.04000001zM900.864-96c-13.50400001 0-24.448 10.94400001-24.448 24.448 0 116.48-53.69600001 223.104-147.26400001 292.67200001-10.81600001 8.064-13.12000001 23.36000001-5.05599999 34.23999999 8.064 10.88 23.424 13.056 34.24000001 5.05599999 104.576-77.696 167.04-201.79200001 167.03999998-331.96799999 0-13.50400001-11.008-24.448-24.51199999-24.448zM123.136-96c-13.50400001 0-24.448 10.94400001-24.448 24.448C98.688 156.35199998999997 284.09599999 341.76 512 341.76c13.50400001 0 24.448-10.94400001 24.448-24.448S525.50400001 292.86400000000003 512 292.86400000000003c-200.96 0-364.416-163.456-364.416-364.416 0-13.50400001-10.94400001-24.448-24.448-24.448z"  horiz-adv-x="1024" />

    
    <glyph glyph-name="speak" unicode="&#58885;" d="M571.1392 842.50133333c-12.3232 6.0608-26.94613333 4.40533333-37.6896-4.29973333-0.5024-0.4224-52.7424-42.816-110.40853333-86.16106667-100.31253333-75.44853333-129.52213333-88.0288-135.45066667-90.03733333h-142.13333333c-0.71893333 0-1.40053333-0.10666667-2.11946667-0.10666667H79.168c-16.16746667 0-29.28213333-13.38986667-29.28213333-29.91786666v-477.4976c0-16.52693333 13.11466667-29.91786667 29.28213333-29.91786667h231.6672c5.8208-2.14933333 33.4144-15.18933333 122.40853333-89.29706667 51.77386667-43.09866667 98.2656-85.2096 98.73173334-85.632 6.64746667-6.02666667 15.1264-9.19893333 23.67786666-9.19893333 4.9216 0 9.91573333 1.05813333 14.58666667 3.20746667 12.7904 5.8848 21.01866667 18.85333333 21.01866667 33.19466666V809.728c0.0352 13.9904-7.79733333 26.71146667-20.12053334 32.77333333z m-38.048-807.65866666c-15.7728 13.60213333-33.37813333 28.5792-51.41333333 43.45066666-118.85226667 98.28266667-148.24213333 106.52906667-168.1824 106.52906667-0.39466667 0-0.7552-0.1056-1.14986667-0.1056-0.39466667 0-0.75413333 0.10666667-1.14986667 0.10666667H133.34933333c-20.5152 0-25.25866667 5.92-25.25866666 26.95786666V578.23893333c0 14.272 1.65333333 23.2224 18.50453333 23.2224h161.89333333c19.40266667 0 49.2224 8.1408 179.21173334 105.3664 23.1744 17.33866667 45.80906667 34.74666667 65.39093333 50.04053334v-722.0256z m350.16 358.63466666c0 92.75093333-49.25866667 173.6608-122.48106667 217.18186667-3.3056 1.79733333-11.17333333 5.25013333-16.63466666 5.25013333-16.24 0-29.42506667-13.46133333-29.42506667-30.05866666 0-11.136 5.81973333-21.07413333 14.62293333-26.25386667 56.58666667-32.84266667 94.816-94.90133333 94.816-166.11946667 0-72.48853333-39.52213333-135.49653333-97.7984-167.88266666-8.48-5.28533333-14.08426667-14.8704-14.08426666-25.76 0-16.59733333 13.18613333-30.05866667 29.42506666-30.05866667 6.8992-0.07146667 15.09013333 4.08746667 15.09013334 4.08746667 75.45066667 42.9568 126.46933333 125.1712 126.46933333 219.61386666z m-33.952 370.016c-5.46133333 3.34826667-10.92266667 6.06186667-17.53386667 6.06186667-16.16746667 0-29.28213333-13.392-29.28213333-29.91893333 0-11.91146667 6.9344-21.46133333 16.7072-26.92266667 107.53386667-64.06613333 179.85813333-183.00053333 179.85813333-319.30666667 0-136.20266667-72.21653333-255.0656-179.64266666-319.16586666-9.41333333-5.216-17.5328-15.11786667-17.5328-27.34613334 0-16.528 13.1136-29.91893333 29.28106666-29.91893333 6.50346667 0 11.6768 2.5376 17.3184 5.8848 124.77866667 74.35626667 208.70826667 212.3904 208.70826667 370.54613333 0 157.87306667-83.56906667 295.6256-207.88266667 370.0864z"  horiz-adv-x="1103" />

    
    <glyph glyph-name="send" unicode="&#58931;" d="M933.74109407 432.4603125C711.63984407 551.65125001 155.79328156 849.950625 142.40296907 857.1253125 129.88265656 863.10562501 59.48015658 879.63375001 66.43171906 792.3046875c26.8453125-141.699375 66.3703125-360.4659375 66.3703125-360.46593751L712.06265656 384 132.80203157 312.24187500000005S93.27796908 117.39374998999995 66.43171906-24.328125c-6.95062499-87.30562499 63.451875-70.7784375 75.97125001-64.7971875 13.39031249 7.17468751 569.2359375 305.4740625 791.338125 424.665 37.56281249 22.0059375 48.01218749 68.9109375 0 96.920625z"  horiz-adv-x="1024" />

    
    <glyph glyph-name="chat-settings" unicode="&#58907;" d="M512 787.79076937c14.03076938 0 23.63076937-3.32307657 27.02769187-5.31692343l304.46769282-175.82769188c12.40615406-7.16307655 27.02769187-32.49230813 27.02769188-46.81846219V208.24615405999998c0-14.32615406-14.62153875-39.65538469-27.02769188-46.81846218l-304.46769282-175.82769187c-3.39692345-1.99384594-12.99692345-5.39076938-27.02769187-5.39076939s-23.63076937 3.32307657-27.02769187 5.31692344L180.43076937 161.35384594000004c-12.40615406 7.16307655-27.02769187 32.49230813-27.0276928 46.81846218V559.8276918700001c0 14.32615406 14.62153875 39.65538469 27.0276928 46.81846219l304.46769188 175.82769188a60.99692345 60.99692345 0 0 0 27.10153875 5.31692343m0 73.84615406c-23.18769187 0-46.37538469-5.09538469-63.95076938-15.21230812L143.50769187 670.59692345c-35.15076938-20.30769187-63.95076937-70.15384594-63.95076842-110.76923157V208.24615405999998c0-40.61538469 28.8-90.46153875 63.95076843-110.76923063l304.46769281-175.82769281c17.57538469-10.11692345 40.76307657-15.21230813 63.95076937-15.21230719s46.37538469 5.09538469 63.95076939 15.2123072l304.46769186 175.8276928c35.15076938 20.30769187 63.95076937 70.15384594 63.95076938 110.76923063V559.8276918700001c0 40.61538469-28.8 90.46153875-63.95076938 110.76923156L575.95076937 846.35076937C558.37538469 856.54153875 535.18769187 861.63692343 512 861.63692343zM777.40307655 560.2707693699999a37.21846125 37.21846125 0 0 1-18.4615378-4.9476928l-265.6984622-184.6153847a36.99692345 36.99692345 0 0 1 36.92307751-64.02461532l265.69846125 184.6153847a36.92307655 36.92307655 0 0 1-18.46153876 68.97230812zM246.59692345 559.68000001a36.84923063 36.84923063 0 0 1-18.46153876-68.89846126l265.69846125-184.61538469a36.84923063 36.84923063 0 0 1 36.84923063 63.95076939l-265.69846126 184.61538468a36.77538469 36.77538469 0 0 1-18.38769186 4.94769188zM511.70461531 374.76923063000004a36.92307655 36.92307655 0 0 1-36.92307656-36.92307657v-250.41230812a36.92307655 36.92307655 0 0 1 73.84615313 0V337.84615406a36.92307655 36.92307655 0 0 1-36.92307657 36.92307656z"  horiz-adv-x="1024" />

    
    <glyph glyph-name="translate" unicode="&#58901;" d="M863.05450667 257.95242667c-45.65674667-148.87594667-184.70229333-257.44725333-348.54229334-257.44725334-199.55712 0-363.50634667 163.29386667-365.58165333 362.0864l22.17301333-14.41792c11.68725333-11.79648 32.22186667-11.79648 43.90912-0.10922666 12.23338667 12.12416 12.23338667 31.78496 0.10922667 43.90912l-61.16693333 52.53802666c-5.78901333 5.89824-15.61941333 14.09024-31.02037334 14.09024-15.29173333 0-20.86229333 0-30.69269333-10.37653333L20.48 384.43690667c-5.89824-5.78901333-9.28426667-13.65333333-9.28426667-21.95456-0.10922667-8.30122667 3.16757333-16.05632 8.95658667-21.95456 0 0 18.13162667-19.98848 43.90912-0.43690667l20.97152 20.09770667c0.21845333-5.57056 3.38602667-27.74357333 3.93216-33.20490667C107.75210667 106.56426667000005 290.26986667-62.73706666999999 514.51221333-62.73706666999999c202.83392 0 373.11829333 141.66698667 416.69973334 331.17525334-23.37450667-4.58752-47.62282667-8.192-68.15744-10.48576zM159.96245333 511.03061333c45.76597333 148.76672 184.70229333 257.33802667 348.43306667 257.33802667 199.55712 0 363.50634667-163.29386667 365.58165333-362.0864l-22.17301333 14.41792c-11.68725333 11.79648-32.22186667 11.79648-43.90912 0.10922667-12.23338667-12.12416-12.23338667-31.78496-0.10922667-43.90912l61.16693334-52.53802667c5.78901333-5.89824 15.61941333-14.09024 31.02037333-14.09024 15.29173333 0 20.86229333 0 30.69269333 10.37653333l71.54346667 63.67914667c5.89824 5.78901333 9.28426667 13.65333333 9.28426667 21.95456 0.10922667 8.30122667-3.16757333 16.05632-8.95658667 21.95456 0 0-18.13162667 19.98848-43.90912 0.43690667L937.984 408.576c-0.21845333 5.57056-3.38602667 27.74357333-3.93216 33.20490667C915.26485333 662.20032 732.74709333 831.50165333 508.50474667 831.50165333 305.5616 831.50165333 135.168 689.6162133299999 91.69578667 499.99872c20.20693333 5.89824 45.54752 10.59498667 68.26666666 11.03189333z m0 0M506.97557333 517.91189333l-54.17642666-134.13034666H561.152l-54.17642667 134.13034666z m0 108.46208c12.45184 0.54613333 24.46677333-6.77205333 29.4912-19.00544l149.85898667-371.04298666c6.33514667-15.61941333-1.20149333-33.31413333-16.82090667-39.64928-15.61941333-6.33514667-33.31413333 1.20149333-39.64928 16.82090666L585.728 322.83306667H428.22314667l-44.12757334-109.33589334c-6.33514667-15.61941333-24.02986667-23.15605333-39.64928-16.82090666-15.61941333 6.33514667-23.15605333 24.02986667-16.82090666 39.64928l149.96821333 371.04298666c4.9152 12.23338667 16.93013333 19.55157333 29.38197333 19.00544z m0 0"  horiz-adv-x="1024" />

    
    <glyph glyph-name="translate-left-down" unicode="&#58891;" d="M310.32888888 246.59057779v-311.40522667c0-22.50069333 18.24085333-40.85077333 40.85077334-40.85077333h309.54837333c36.37248 0 54.61333333 43.90912 28.94506667 69.57738667l-127.35829334 47.07669333C510.21368888 30.321777790000056 468.27064888 70.08028446000003 446.31608888 121.19836446l-66.19136 154.11882666c-25.66826667 25.88672-69.79584 7.64586667-69.79584-28.72661333zM382.1740032-72.50387247000003c-23.23955105 0-43.99358862 16.2801133-48.71606423 40.01676706-4.47392427 22.12106998 6.58661072 43.74503728 25.60078885 53.6870912 14.16742685 10.93625932 72.45271798 65.36900457 131.48366317 136.82751715 71.58278827 86.86869618 115.07927419 163.79533843 122.41153897 216.36394857 10.93625932 78.16939899 6.58661072 121.04450655-17.52287004 170.00912213-27.21637262 55.42695063-81.0277395 120.17457683-192.00591645 231.15275378-19.38700515 19.38700515-19.38700515 50.8287507 0 70.34003152 19.38700515 19.38700515 50.8287507 19.38700515 70.34003152 0 119.30464711-119.30464711 178.45986797-191.50881375 210.89581891-257.62347235 38.02835627-77.29946928 38.40118329-144.40833328 26.71926992-227.6730349-5.96523235-42.50228053-25.35223751-91.34262045-57.66391277-145.278263-24.97941049-41.63235082-57.41536142-86.24731781-96.68647443-132.72641991-39.7682157-47.10048048-75.80816118-83.51325298-93.82813392-101.03612302-12.67611875-12.30329173-24.23375645-22.9909997-33.67870768-31.06891852-14.66452955-12.55184308-24.60658347-19.51128083-37.65552924-22.12106998-3.23116752-0.62137837-6.46233505-0.86992972-9.69350258-0.86992973z"  horiz-adv-x="1024" />

    
    <glyph glyph-name="translate-right-down" unicode="&#58894;" d="M696.99584 258.42346667000004v-311.40522666c0-22.50069333-18.24085333-40.85077333-40.85077333-40.85077334H346.59669334c-36.37248 0-54.61333333 43.90912-28.94506667 69.57738667l127.35829333 47.07669333c52.10112 19.22389333 94.04416 59.09162667 115.99872 110.20970667L627.2 287.15008001c25.66826667 25.88672 69.79584 7.64586667 69.79584-28.72661334zM622.68675413-63.59810654c-3.23116752 0-6.46233505 0.37282702-9.81777825 0.9942054-13.04894578 2.60978915-22.9909997 9.5692269-37.65552925 22.12106998-9.44495123 8.07791882-21.12686459 18.88990245-33.67870767 31.06891852-18.01997275 17.52287005-54.05991822 53.93564255-93.82813393 101.03612302-39.14683733 46.4791021-71.70706395 91.0940691-96.68647442 132.72641991-32.31167525 53.93564255-51.69868042 102.77598245-57.66391278 145.278263-11.68191337 83.14042595-11.30908635 150.24928995 26.71926993 227.6730349 32.43595093 66.11465861 91.59117179 138.31882525 210.8958189 257.62347235 19.38700515 19.38700515 50.8287507 19.38700515 70.34003152 0 19.38700515-19.38700515 19.38700515-50.8287507 0-70.34003152-110.97817695-110.97817695-164.78954382-175.72580315-192.00591644-231.15275378-23.9852051-48.96461558-28.45912937-91.83972315-17.52287005-170.00912213 7.33226477-52.69288581 50.8287507-129.49525238 122.41153897-216.36394857 58.90666951-71.58278827 117.31623632-126.01553351 131.48366317-136.82751715 19.01417813-9.94205392 29.95043745-31.56602122 25.60078886-53.81136688-4.59819995-23.73665375-25.35223751-40.01676705-48.59178856-40.01676705z"  horiz-adv-x="1024" />

    
    <glyph glyph-name="translate-left-up" unicode="&#58895;" d="M283.64117333 498.64703999v311.296c0 22.50069333 18.24085333 40.85077333 40.85077333 40.85077334h309.54837334c36.37248 0 54.61333333-43.90912 28.94506666-69.57738667l-127.35829333-47.07669333c-52.10112-19.22389333-94.04416-59.09162667-115.99872-110.20970667l-66.19136-154.11882667c-25.66826667-25.77749333-69.79584-7.64586667-69.79584 28.83584zM414.21012386-93.31113719999996c-12.67611875 0-25.47651318 4.84675129-35.17001576 14.54025388-19.38700515 19.38700515-19.38700515 50.8287507 0 70.34003153 110.97817695 110.97817695 164.78954382 175.72580315 192.00591644 231.15275377 23.9852051 48.96461558 28.45912937 91.83972315 17.52287004 170.00912213-7.33226477 52.69288581-50.8287507 129.49525238-122.41153896 216.36394856-58.90666951 71.58278827-117.31623632 126.01553351-131.48366317 136.82751716-19.01417813 9.94205392-29.95043745 31.56602122-25.60078886 53.68709119 5.34385398 26.96782128 31.56602122 44.36641565 58.53384249 39.02256167 13.04894578-2.60978915 22.9909997-9.5692269 37.65552925-22.12106998 9.44495123-8.07791882 21.12686459-18.88990245 33.67870767-31.06891853 18.01997275-17.52287005 54.05991822-53.93564255 93.82813393-101.03612302 39.14683733-46.4791021 71.70706395-91.0940691 96.68647442-132.72641992 32.31167525-53.93564255 51.69868042-102.77598245 57.66391278-145.27826298 11.68191337-83.14042595 11.30908635-150.24928995-26.71926993-227.67303491-32.43595093-66.11465861-91.59117179-138.31882525-210.8958189-257.62347234-9.81777825-9.5692269-22.61817268-14.41597819-35.29429144-14.41597821z"  horiz-adv-x="1024" />

    
    <glyph glyph-name="translate-right-up" unicode="&#58897;" d="M716.69077333 498.64703999v311.296c0 22.50069333-18.24085333 40.85077333-40.85077333 40.85077334H366.29162667c-36.37248 0-54.61333333-43.90912-28.94506667-69.57738667l127.35829333-47.07669333c52.10112-19.22389333 94.04416-59.09162667 115.99872-110.20970667l66.19136-154.11882667c25.66826667-25.77749333 69.79584-7.64586667 69.79584 28.83584zM589.00489101-91.97780386c12.67611875 0 25.47651318 4.84675129 35.17001577 14.54025387 19.38700515 19.38700515 19.38700515 50.8287507 0 70.34003153-110.97817695 110.85390128-164.78954382 175.72580315-192.00591645 231.15275377-23.9852051 48.96461558-28.45912937 91.83972315-17.52287004 170.00912213 7.33226477 52.69288581 50.8287507 129.49525238 122.41153895 216.36394857 58.90666951 71.58278827 117.31623632 126.01553351 131.48366318 136.82751715 19.01417813 9.94205392 29.95043745 31.56602122 25.60078885 53.6870912-5.34385398 26.96782128-31.56602122 44.36641565-58.53384248 39.02256166-13.04894578-2.60978915-22.9909997-9.5692269-37.65552925-22.12106998-9.44495123-8.07791882-21.12686459-18.88990245-33.67870767-31.06891853-18.01997275-17.52287005-54.05991822-53.93564255-93.82813393-101.03612302-39.14683733-46.4791021-71.70706395-91.0940691-96.68647443-132.72641991-32.31167525-53.93564255-51.69868042-102.77598245-57.66391277-145.27826299-11.68191337-83.14042595-11.30908635-150.24928995 26.71926993-227.6730349C375.37500727 114.07126375999997 434.53022814 41.86709711000003 553.83487524-77.43754998999998c9.69350258-9.69350258 22.36962133-14.54025387 35.17001577-14.54025387z"  horiz-adv-x="1024" />

    


  </font>
</defs>
</svg>
